<mxfile host="app.diagrams.net" modified="2023-12-28T13:21:58.686Z" agent="Mozilla/5.0 (X11; Linux x86_64) AppleWebKit/537.36 (KHTML, like Gecko) Chrome/119.0.0.0 Safari/537.36" etag="Cuz3YZRpr3v0azQVZyuK" version="22.1.15" type="github">
  <diagram name="Page-1" id="y8vAEm0ec6xkJn3cs_1N">
    <mxGraphModel dx="1706" dy="2176" grid="1" gridSize="10" guides="1" tooltips="1" connect="1" arrows="1" fold="1" page="1" pageScale="1" pageWidth="827" pageHeight="1169" math="0" shadow="0">
      <root>
        <mxCell id="0" />
        <mxCell id="1" parent="0" />
        <mxCell id="7NCAhC83S6CRaPXj9yjH-2" style="edgeStyle=orthogonalEdgeStyle;rounded=0;orthogonalLoop=1;jettySize=auto;html=1;exitX=1;exitY=0.5;exitDx=0;exitDy=0;entryX=0;entryY=0.5;entryDx=0;entryDy=0;strokeWidth=2;" edge="1" parent="1" source="7NCAhC83S6CRaPXj9yjH-3" target="7NCAhC83S6CRaPXj9yjH-6">
          <mxGeometry relative="1" as="geometry">
            <mxPoint x="281" y="70" as="targetPoint" />
          </mxGeometry>
        </mxCell>
        <mxCell id="7NCAhC83S6CRaPXj9yjH-3" value="&lt;b&gt;commit&lt;/b&gt; &lt;br&gt;to &lt;i&gt;example-branch&lt;/i&gt;" style="rounded=1;whiteSpace=wrap;html=1;" vertex="1" parent="1">
          <mxGeometry x="91" y="40" width="120" height="60" as="geometry" />
        </mxCell>
        <mxCell id="7NCAhC83S6CRaPXj9yjH-4" value="pull image" style="edgeStyle=orthogonalEdgeStyle;rounded=0;orthogonalLoop=1;jettySize=auto;html=1;exitDx=0;exitDy=0;exitPerimeter=0;strokeWidth=2;" edge="1" parent="1" source="7NCAhC83S6CRaPXj9yjH-30" target="7NCAhC83S6CRaPXj9yjH-9">
          <mxGeometry relative="1" as="geometry">
            <Array as="points">
              <mxPoint x="601" y="60" />
            </Array>
          </mxGeometry>
        </mxCell>
        <mxCell id="7NCAhC83S6CRaPXj9yjH-5" value="&lt;b&gt;docker container registry&lt;/b&gt;" style="shape=cylinder3;whiteSpace=wrap;html=1;boundedLbl=1;backgroundOutline=1;size=15;labelPosition=center;verticalLabelPosition=top;align=center;verticalAlign=bottom;" vertex="1" parent="1">
          <mxGeometry x="531" y="-210" width="230" height="170" as="geometry" />
        </mxCell>
        <mxCell id="7NCAhC83S6CRaPXj9yjH-6" value="&lt;b&gt;build-and-push&lt;/b&gt;&lt;br&gt;Build docker image&lt;br&gt;with tag: &lt;i&gt;example-branch&lt;/i&gt;" style="shape=step;perimeter=stepPerimeter;whiteSpace=wrap;html=1;fixedSize=1;" vertex="1" parent="1">
          <mxGeometry x="271" y="20" width="170" height="100" as="geometry" />
        </mxCell>
        <mxCell id="7NCAhC83S6CRaPXj9yjH-7" value="push image" style="edgeStyle=orthogonalEdgeStyle;rounded=0;orthogonalLoop=1;jettySize=auto;html=1;exitX=1;exitY=0.5;exitDx=0;exitDy=0;entryX=0.145;entryY=1;entryDx=0;entryDy=-4.35;entryPerimeter=0;strokeWidth=2;" edge="1" parent="1" source="7NCAhC83S6CRaPXj9yjH-6" target="7NCAhC83S6CRaPXj9yjH-5">
          <mxGeometry relative="1" as="geometry">
            <Array as="points">
              <mxPoint x="564" y="70" />
            </Array>
          </mxGeometry>
        </mxCell>
        <mxCell id="7NCAhC83S6CRaPXj9yjH-8" style="edgeStyle=orthogonalEdgeStyle;rounded=0;orthogonalLoop=1;jettySize=auto;html=1;exitX=1;exitY=0.5;exitDx=0;exitDy=0;entryX=0;entryY=0.5;entryDx=0;entryDy=0;strokeWidth=2;dashed=1;" edge="1" parent="1" source="7NCAhC83S6CRaPXj9yjH-9" target="7NCAhC83S6CRaPXj9yjH-26">
          <mxGeometry relative="1" as="geometry" />
        </mxCell>
        <mxCell id="7NCAhC83S6CRaPXj9yjH-9" value="&lt;b&gt;test&lt;br&gt;&lt;/b&gt;run pytest" style="shape=step;perimeter=stepPerimeter;whiteSpace=wrap;html=1;fixedSize=1;" vertex="1" parent="1">
          <mxGeometry x="821" y="10" width="170" height="100" as="geometry" />
        </mxCell>
        <mxCell id="7NCAhC83S6CRaPXj9yjH-10" style="edgeStyle=orthogonalEdgeStyle;rounded=0;orthogonalLoop=1;jettySize=auto;html=1;exitX=1;exitY=0.5;exitDx=0;exitDy=0;entryX=0;entryY=0.5;entryDx=0;entryDy=0;strokeWidth=2;" edge="1" parent="1" source="7NCAhC83S6CRaPXj9yjH-11" target="7NCAhC83S6CRaPXj9yjH-15">
          <mxGeometry relative="1" as="geometry" />
        </mxCell>
        <mxCell id="7NCAhC83S6CRaPXj9yjH-11" value="&lt;b&gt;daily workflow&lt;/b&gt;&lt;br&gt;(currently manual trigger)" style="rounded=1;whiteSpace=wrap;html=1;" vertex="1" parent="1">
          <mxGeometry x="91" y="240" width="120" height="60" as="geometry" />
        </mxCell>
        <mxCell id="7NCAhC83S6CRaPXj9yjH-12" value="&lt;span style=&quot;border-color: var(--border-color); font-size: 12px; font-style: normal; font-variant-ligatures: normal; font-variant-caps: normal; font-weight: 400; letter-spacing: normal; orphans: 2; text-indent: 0px; text-transform: none; widows: 2; word-spacing: 0px; -webkit-text-stroke-width: 0px; background-color: rgb(251, 251, 251); text-decoration-thickness: initial; text-decoration-style: initial; text-decoration-color: initial; box-sizing: border-box; font-family: ui-monospace, SFMono-Regular, &amp;quot;SF Mono&amp;quot;, Menlo, Consolas, &amp;quot;Liberation Mono&amp;quot;, monospace; text-align: left; color: var(--fgColor-done, var(--color-done-fg)) !important;&quot; class=&quot;color-fg-done&quot;&gt;python-trading&lt;/span&gt;&lt;span style=&quot;border-color: var(--border-color); font-size: 12px; font-style: normal; font-variant-ligatures: normal; font-variant-caps: normal; font-weight: 400; letter-spacing: normal; orphans: 2; text-indent: 0px; text-transform: none; widows: 2; word-spacing: 0px; -webkit-text-stroke-width: 0px; background-color: rgb(251, 251, 251); text-decoration-thickness: initial; text-decoration-style: initial; text-decoration-color: initial; box-sizing: border-box; font-family: ui-monospace, SFMono-Regular, &amp;quot;SF Mono&amp;quot;, Menlo, Consolas, &amp;quot;Liberation Mono&amp;quot;, monospace; text-align: left; color: var(--fgColor-done, var(--color-done-fg)) !important;&quot; class=&quot;color-fg-done&quot;&gt;:master&lt;/span&gt;" style="rounded=0;whiteSpace=wrap;html=1;" vertex="1" parent="1">
          <mxGeometry x="556" y="-170" width="180" height="30" as="geometry" />
        </mxCell>
        <mxCell id="7NCAhC83S6CRaPXj9yjH-13" value="python-trading&lt;span style=&quot;border-color: var(--border-color); box-sizing: border-box; font-family: ui-monospace, SFMono-Regular, &amp;quot;SF Mono&amp;quot;, Menlo, Consolas, &amp;quot;Liberation Mono&amp;quot;, monospace; text-align: left; color: var(--fgColor-done, var(--color-done-fg)) !important;&quot; class=&quot;color-fg-done&quot;&gt;:example-branch&lt;/span&gt;" style="rounded=0;whiteSpace=wrap;html=1;" vertex="1" parent="1">
          <mxGeometry x="541" y="-130" width="210" height="30" as="geometry" />
        </mxCell>
        <mxCell id="7NCAhC83S6CRaPXj9yjH-14" style="edgeStyle=orthogonalEdgeStyle;rounded=0;orthogonalLoop=1;jettySize=auto;html=1;exitX=1;exitY=0.5;exitDx=0;exitDy=0;entryX=0;entryY=0.5;entryDx=0;entryDy=0;strokeWidth=2;" edge="1" parent="1" source="7NCAhC83S6CRaPXj9yjH-15" target="7NCAhC83S6CRaPXj9yjH-17">
          <mxGeometry relative="1" as="geometry" />
        </mxCell>
        <mxCell id="7NCAhC83S6CRaPXj9yjH-15" value="&lt;b&gt;pull image&lt;br&gt;&lt;/b&gt;Pull docker image&lt;br&gt;with tag: &lt;i&gt;latest&lt;/i&gt;" style="shape=step;perimeter=stepPerimeter;whiteSpace=wrap;html=1;fixedSize=1;" vertex="1" parent="1">
          <mxGeometry x="271" y="220" width="170" height="100" as="geometry" />
        </mxCell>
        <mxCell id="7NCAhC83S6CRaPXj9yjH-16" style="edgeStyle=orthogonalEdgeStyle;rounded=0;orthogonalLoop=1;jettySize=auto;html=1;exitX=1;exitY=0.5;exitDx=0;exitDy=0;entryX=0;entryY=0.5;entryDx=0;entryDy=0;strokeWidth=2;" edge="1" parent="1" source="7NCAhC83S6CRaPXj9yjH-17" target="7NCAhC83S6CRaPXj9yjH-19">
          <mxGeometry relative="1" as="geometry" />
        </mxCell>
        <mxCell id="7NCAhC83S6CRaPXj9yjH-17" value="&lt;b&gt;checkout repository&lt;br&gt;&lt;/b&gt;Checkout and sync with &lt;i&gt;python-trading&lt;/i&gt; repo" style="shape=step;perimeter=stepPerimeter;whiteSpace=wrap;html=1;fixedSize=1;" vertex="1" parent="1">
          <mxGeometry x="501" y="220" width="170" height="100" as="geometry" />
        </mxCell>
        <mxCell id="7NCAhC83S6CRaPXj9yjH-18" style="edgeStyle=orthogonalEdgeStyle;rounded=0;orthogonalLoop=1;jettySize=auto;html=1;exitX=1;exitY=0.5;exitDx=0;exitDy=0;strokeWidth=2;" edge="1" parent="1" source="7NCAhC83S6CRaPXj9yjH-19" target="7NCAhC83S6CRaPXj9yjH-21">
          <mxGeometry relative="1" as="geometry" />
        </mxCell>
        <mxCell id="7NCAhC83S6CRaPXj9yjH-19" value="&lt;b&gt;create .env files&lt;br&gt;&lt;/b&gt;Create .env files and &lt;br&gt;populate them with env&lt;br&gt;variables stored in project secretes" style="shape=step;perimeter=stepPerimeter;whiteSpace=wrap;html=1;fixedSize=1;" vertex="1" parent="1">
          <mxGeometry x="711" y="220" width="170" height="100" as="geometry" />
        </mxCell>
        <mxCell id="7NCAhC83S6CRaPXj9yjH-20" style="edgeStyle=orthogonalEdgeStyle;rounded=0;orthogonalLoop=1;jettySize=auto;html=1;exitX=1;exitY=0.5;exitDx=0;exitDy=0;entryX=0;entryY=0.5;entryDx=0;entryDy=0;strokeWidth=2;" edge="1" parent="1" source="7NCAhC83S6CRaPXj9yjH-21" target="7NCAhC83S6CRaPXj9yjH-23">
          <mxGeometry relative="1" as="geometry">
            <mxPoint x="1051" y="280" as="sourcePoint" />
            <mxPoint x="251" y="430" as="targetPoint" />
            <Array as="points">
              <mxPoint x="1121" y="270" />
              <mxPoint x="1121" y="350" />
              <mxPoint x="241" y="350" />
              <mxPoint x="241" y="420" />
            </Array>
          </mxGeometry>
        </mxCell>
        <mxCell id="7NCAhC83S6CRaPXj9yjH-21" value="&lt;b&gt;run scripts&lt;br&gt;&lt;/b&gt;run daily_workflow.sh&lt;br&gt;run daily_workflow.py&lt;br&gt;[files are being generated &lt;br&gt;to&amp;nbsp;GENERATED_PATH&lt;span style=&quot;background-color: initial;&quot;&gt;]&lt;/span&gt;" style="shape=step;perimeter=stepPerimeter;whiteSpace=wrap;html=1;fixedSize=1;" vertex="1" parent="1">
          <mxGeometry x="921" y="220" width="170" height="100" as="geometry" />
        </mxCell>
        <mxCell id="7NCAhC83S6CRaPXj9yjH-22" style="edgeStyle=orthogonalEdgeStyle;rounded=0;orthogonalLoop=1;jettySize=auto;html=1;exitX=1;exitY=0.5;exitDx=0;exitDy=0;entryX=0;entryY=0.5;entryDx=0;entryDy=0;strokeWidth=2;" edge="1" parent="1" source="7NCAhC83S6CRaPXj9yjH-23" target="7NCAhC83S6CRaPXj9yjH-25">
          <mxGeometry relative="1" as="geometry" />
        </mxCell>
        <mxCell id="7NCAhC83S6CRaPXj9yjH-23" value="&lt;b&gt;run scripts&lt;br&gt;&lt;/b&gt;run daily_workflow.sh&lt;br&gt;run daily_workflow.py&lt;br&gt;[files are being generated &lt;br&gt;to&amp;nbsp;GENERATED_PATH&lt;span style=&quot;background-color: initial;&quot;&gt;]&lt;/span&gt;" style="shape=step;perimeter=stepPerimeter;whiteSpace=wrap;html=1;fixedSize=1;" vertex="1" parent="1">
          <mxGeometry x="271" y="370" width="170" height="100" as="geometry" />
        </mxCell>
        <mxCell id="7NCAhC83S6CRaPXj9yjH-24" style="edgeStyle=orthogonalEdgeStyle;rounded=0;orthogonalLoop=1;jettySize=auto;html=1;exitX=1;exitY=0.5;exitDx=0;exitDy=0;entryX=0;entryY=0.5;entryDx=0;entryDy=0;strokeWidth=2;" edge="1" parent="1" source="7NCAhC83S6CRaPXj9yjH-25" target="7NCAhC83S6CRaPXj9yjH-3">
          <mxGeometry relative="1" as="geometry">
            <Array as="points">
              <mxPoint x="701" y="420" />
              <mxPoint x="701" y="500" />
              <mxPoint x="51" y="500" />
              <mxPoint x="51" y="70" />
            </Array>
          </mxGeometry>
        </mxCell>
        <mxCell id="7NCAhC83S6CRaPXj9yjH-25" value="&lt;blockquote style=&quot;margin: 0 0 0 40px; border: none; padding: 0px;&quot;&gt;&lt;/blockquote&gt;&lt;b style=&quot;background-color: initial;&quot;&gt;commit and push&lt;/b&gt;&lt;br&gt;&lt;blockquote style=&quot;margin: 0 0 0 40px; border: none; padding: 0px;&quot;&gt;&lt;/blockquote&gt;&lt;span style=&quot;background-color: initial;&quot;&gt;&amp;nbsp; &amp;nbsp;stage, commit and push&amp;nbsp;&lt;/span&gt;&lt;br&gt;generated files" style="shape=step;perimeter=stepPerimeter;whiteSpace=wrap;html=1;fixedSize=1;" vertex="1" parent="1">
          <mxGeometry x="501" y="370" width="170" height="100" as="geometry" />
        </mxCell>
        <mxCell id="7NCAhC83S6CRaPXj9yjH-26" value="&lt;b&gt;tag&lt;br&gt;(only on master)&lt;br&gt;&lt;/b&gt;&amp;nbsp; &amp;nbsp; &amp;nbsp; After tests run successfully,&lt;br&gt;tag imate with &lt;br&gt;python-trading:latest" style="shape=step;perimeter=stepPerimeter;whiteSpace=wrap;html=1;fixedSize=1;dashed=1;" vertex="1" parent="1">
          <mxGeometry x="1051" y="10" width="170" height="100" as="geometry" />
        </mxCell>
        <mxCell id="7NCAhC83S6CRaPXj9yjH-27" value="push image" style="edgeStyle=orthogonalEdgeStyle;rounded=0;orthogonalLoop=1;jettySize=auto;html=1;exitX=1;exitY=0.5;exitDx=0;exitDy=0;entryX=0.5;entryY=1;entryDx=0;entryDy=0;entryPerimeter=0;strokeWidth=2;" edge="1" parent="1" source="7NCAhC83S6CRaPXj9yjH-26" target="7NCAhC83S6CRaPXj9yjH-5">
          <mxGeometry relative="1" as="geometry" />
        </mxCell>
        <mxCell id="7NCAhC83S6CRaPXj9yjH-28" value="python-trading&lt;span style=&quot;border-color: var(--border-color); box-sizing: border-box; font-family: ui-monospace, SFMono-Regular, &amp;quot;SF Mono&amp;quot;, Menlo, Consolas, &amp;quot;Liberation Mono&amp;quot;, monospace; text-align: left; color: var(--fgColor-done, var(--color-done-fg)) !important;&quot; class=&quot;color-fg-done&quot;&gt;:latest&lt;/span&gt;" style="rounded=0;whiteSpace=wrap;html=1;" vertex="1" parent="1">
          <mxGeometry x="541" y="-90" width="210" height="30" as="geometry" />
        </mxCell>
        <mxCell id="7NCAhC83S6CRaPXj9yjH-29" value="" style="edgeStyle=orthogonalEdgeStyle;rounded=0;orthogonalLoop=1;jettySize=auto;html=1;exitX=0.301;exitY=1.007;exitDx=0;exitDy=0;exitPerimeter=0;strokeWidth=2;endArrow=none;endFill=0;" edge="1" parent="1" source="7NCAhC83S6CRaPXj9yjH-5" target="7NCAhC83S6CRaPXj9yjH-30">
          <mxGeometry relative="1" as="geometry">
            <mxPoint x="600" y="-39" as="sourcePoint" />
            <mxPoint x="841" y="60" as="targetPoint" />
            <Array as="points">
              <mxPoint x="600" y="16" />
            </Array>
          </mxGeometry>
        </mxCell>
        <mxCell id="7NCAhC83S6CRaPXj9yjH-30" value="" style="shape=waypoint;sketch=0;fillStyle=solid;size=6;pointerEvents=1;points=[];fillColor=none;resizable=0;rotatable=0;perimeter=centerPerimeter;snapToPoint=1;" vertex="1" parent="1">
          <mxGeometry x="590" y="50" width="20" height="20" as="geometry" />
        </mxCell>
        <mxCell id="7NCAhC83S6CRaPXj9yjH-31" value="pull image" style="edgeStyle=orthogonalEdgeStyle;rounded=0;orthogonalLoop=1;jettySize=auto;html=1;strokeWidth=2;entryX=0.75;entryY=0;entryDx=0;entryDy=0;" edge="1" parent="1" source="7NCAhC83S6CRaPXj9yjH-30" target="7NCAhC83S6CRaPXj9yjH-15">
          <mxGeometry relative="1" as="geometry">
            <mxPoint x="610" y="70" as="sourcePoint" />
            <mxPoint x="851" y="70" as="targetPoint" />
            <Array as="points">
              <mxPoint x="600" y="140" />
              <mxPoint x="399" y="140" />
            </Array>
          </mxGeometry>
        </mxCell>
      </root>
    </mxGraphModel>
  </diagram>
</mxfile>
